<svg aria-hidden="true" style="position:absolute;width:0;height:0;overflow:hidden" xmlns="http://www.w3.org/2000/svg">
  <defs>
    <symbol id="icon-arrow" viewBox="0 0 32 32">
      <path d="M16.145 3.571a.915.915 0 0 0-.909.914v21.561l-5.721-5.754a.906.906 0 0 0-1.288 0 .917.917 0 0 0 0 1.294l7.274 7.313a.91.91 0 0 0 .992.199.91.91 0 0 0 .295-.199l7.274-7.313a.928.928 0 0 0 .266-.647.915.915 0 0 0-.911-.915.908.908 0 0 0-.644.268l-5.721 5.754V4.485a.908.908 0 0 0-.909-.914z"/>
    </symbol>
    <symbol id="icon-close-window" viewBox="0 0 32 32">
      <path d="m18.613 15.912 12.96-12.96A1.78 1.78 0 0 0 31.48.539a1.775 1.775 0 0 0-2.414-.093l-12.96 12.96L3.146.428A1.78 1.78 0 0 0 .733.521 1.775 1.775 0 0 0 .64 2.934L13.6 15.912.622 28.872a1.785 1.785 0 0 0-.62 1.282 1.79 1.79 0 0 0 .519 1.326 1.767 1.767 0 0 0 1.326.519 1.785 1.785 0 0 0 1.282-.62l12.978-12.96 12.96 12.96a1.78 1.78 0 0 0 2.414-.093 1.775 1.775 0 0 0 .093-2.413l-12.96-12.96z"/>
    </symbol>
    <symbol id="icon-arrow-right" viewBox="0 0 32 32">
      <path d="M8.381 29.196l13.416-13.196-13.416-13.196 2.072-2.042 15.451 15.246-15.451 15.23-2.072-2.042z"></path>
    </symbol>
    <symbol id="icon-arrow-left" viewBox="0 0 32 32">
      <path d="M23.619 2.804l-13.416 13.196 13.416 13.196-2.072 2.042-15.451-15.246 15.451-15.23 2.072 2.042z"></path>
    </symbol>
    <symbol id="icon-paper-clip" viewBox="0 0 32 32">
      <path d="M5.727 30.545c-1.354 0-2.556-.508-3.606-1.525C1.01 27.945.454 26.64.454 25.105s.556-2.84 1.667-3.915L19.545 3.301c.889-.88 1.914-1.447 3.076-1.701s2.338-.186 3.53.205c1.192.391 2.293 1.065 3.303 2.023.323.332.621.699.894 1.1s.495.821.667 1.261a8 8 0 0 1 .53 2.859c-.04 2.072-.768 3.803-2.182 5.191L16.181 27.787c-.182.195-.404.298-.667.308s-.49-.073-.682-.249c-.192-.176-.293-.396-.303-.66s.076-.494.258-.689l13.182-13.548c1.071-1.056 1.616-2.366 1.636-3.93s-.495-2.845-1.545-3.842c-.647-.645-1.364-1.134-2.152-1.466s-1.636-.44-2.545-.323-1.717.518-2.424 1.202L3.515 22.479c-.747.723-1.121 1.593-1.121 2.61s.374 1.887 1.121 2.61c.343.332.717.582 1.121.748s.828.23 1.273.191c.889-.039 1.717-.44 2.485-1.202l13.849-14.252a4.196 4.196 0 0 0 .576-.689c.101-.147.182-.303.242-.469s.101-.332.121-.499c.02-.166-.01-.337-.091-.513s-.202-.342-.364-.499c-.384-.391-.758-.567-1.121-.528-.384.039-.818.283-1.303.733L9.879 21.453c-.121.117-.263.2-.424.249s-.328.054-.5.015a.9.9 0 0 1-.439-.235c-.202-.176-.303-.391-.303-.645s.091-.479.273-.674L18.91 9.401c.828-.782 1.667-1.212 2.515-1.29.97-.078 1.859.274 2.667 1.056.768.723 1.106 1.574 1.015 2.551s-.581 1.896-1.47 2.757L9.789 28.757c-1.131 1.095-2.394 1.681-3.788 1.76-.04 0-.086.005-.136.015s-.096.015-.136.015z"/>
    </symbol>
    <symbol id="icon-icon-tel" viewBox="0 0 32 32">
      <path d="m25.64 20.347-3.387-.387a2.647 2.647 0 0 0-2.187.76l-2.453 2.453a20.062 20.062 0 0 1-8.787-8.787l2.467-2.467a2.656 2.656 0 0 0 .76-2.187l-.387-3.36c-.076-.65-.388-1.25-.877-1.686s-1.121-.675-1.776-.674H6.706c-1.507 0-2.76 1.253-2.667 2.76.707 11.387 9.813 20.48 21.187 21.187 1.507.093 2.76-1.16 2.76-2.667v-2.307c.013-1.347-1-2.48-2.347-2.64z"/>
    </symbol>
    <symbol id="icon-more-photo" viewBox="0 0 32 32">
      <path d="M16 .516V4.94M27.06 4.941l-3.318 3.318M4.94 4.941l3.318 3.318M16 31.483v-4.424M27.06 27.06l-3.318-3.318M4.94 27.06l3.318-3.318M.516 16H4.94M27.06 16h4.424"/>
    </symbol>
    <symbol id="icon-polygon" viewBox="0 0 107 32">
      <path d="M53.333 0l46.188 32h-92.376l46.188-32z"></path>
    </symbol>
    <symbol id="icon-burger" viewBox="0 0 32 32">
      <path d="M32 8a1 1 0 0 1-1 1H1a1 1 0 0 1 0-2h30a1 1 0 0 1 1 1zm0 16a1 1 0 0 1-1 1H1a1 1 0 0 1 0-2h30a1 1 0 0 1 1 1zm0-8.008a.992.992 0 0 1-.992.992H.992a.992.992 0 1 1 0-1.984h30.016c.548 0 .992.444.992.992z"/>
    </symbol>
  </defs>
</svg>
